# Blender v3.4.1 OBJ File: 'Transformer.blend'
# www.blender.org
mtllib generator.mtl
o Generator_ID31
v 1.540817 -0.000000 0.425661
v 1.540817 -0.000000 -0.558591
v 1.540817 0.196850 -0.558591
v 1.540817 0.196850 0.425661
v -0.427687 0.000000 -0.558591
v -0.427687 0.196850 -0.558591
v -0.427687 0.000000 0.425660
v -0.427687 0.196850 0.425660
v 1.614636 0.196850 0.499480
v 1.614636 0.196850 -0.632410
v 2.106762 0.935039 -0.632410
v 2.106762 0.935039 0.499480
v -0.501506 0.196850 0.499480
v -0.501506 0.196850 -0.632410
v -0.501505 1.673229 -0.632410
v 2.106762 1.673229 -0.632410
v 2.106762 1.673229 0.499480
v -0.501506 1.673229 0.499480
vt 0.885793 0.454018
vt 0.885793 0.516440
vt 0.775865 0.516440
vt 0.775865 0.454018
vt 0.884067 0.456078
vt 0.884067 0.517022
vt 0.774139 0.517022
vt 0.774139 0.456078
vt 0.886063 0.457367
vt 0.886064 0.518311
vt 0.776135 0.518311
vt 0.776135 0.457367
vt 0.883796 0.454662
vt 0.883796 0.517085
vt 0.773868 0.517085
vt 0.773868 0.454663
vt 0.433927 0.630003
vt 0.013333 0.630003
vt 0.013333 0.300335
vt 0.433927 0.300335
vt 0.118900 0.853992
vt 0.118900 0.427405
vt 0.347075 0.427405
vt 0.347075 0.853992
vt 0.196495 0.384309
vt 0.996495 0.384309
vt 0.996495 0.969238
vt 0.010449 0.969238
vt 0.010449 0.676773
vt 0.023346 0.019936
vt 0.452973 0.019936
vt 0.452973 0.300128
vt 0.023346 0.300128
vt 0.529449 0.523678
vt 0.714585 0.660816
vt 0.922394 0.660816
vt 0.922394 0.002002
vt 0.529449 0.002002
vt 0.446236 0.648870
vt 0.022745 0.648870
vt 0.022745 0.024641
vt 0.446236 0.024640
vt 0.368885 0.940709
vt 0.099586 0.940709
vt 0.099586 0.320152
vt 0.368885 0.320152
vn 1.0000 0.0000 0.0000
vn 0.0000 -0.0000 -1.0000
vn -0.0000 0.0000 1.0000
vn -1.0000 0.0000 -0.0000
vn 0.8321 -0.5547 0.0000
vn -0.0000 -1.0000 0.0000
vn 0.0000 1.0000 -0.0000
usemtl material.001
s 1
f 1/1/1 2/2/1 3/3/1 4/4/1
f 2/5/2 5/6/2 6/7/2 3/8/2
f 7/9/3 1/10/3 4/11/3 8/12/3
f 5/13/4 7/14/4 8/15/4 6/16/4
f 9/17/5 10/18/5 11/19/5 12/20/5
f 9/21/6 13/22/6 14/23/6 10/24/6
f 10/25/2 14/26/2 15/27/2 16/28/2 11/29/2
f 12/30/1 11/31/1 16/32/1 17/33/1
f 9/34/3 12/35/3 17/36/3 18/37/3 13/38/3
f 14/39/4 13/40/4 18/41/4 15/42/4
f 17/43/7 16/44/7 15/45/7 18/46/7
