# Blender v3.4.1 OBJ File: ''
# www.blender.org
mtllib pallet.mtl
o Pallet_2_Mesh.032
v 0.972613 0.244148 -0.784757
v -0.969860 0.244148 -0.784757
v -0.969860 0.244388 -0.589598
v 0.972613 0.244388 -0.589598
v -0.969860 0.214586 -0.589562
v -0.969860 0.214346 -0.784721
v 0.972613 0.214346 -0.784721
v 0.972613 0.214586 -0.589562
v -0.778342 0.183119 -0.610413
v -0.778342 0.182887 -0.799392
v -0.962988 0.182887 -0.799392
v -0.962988 0.183119 -0.610413
v -0.962988 0.033005 -0.799208
v -0.778342 0.033005 -0.799208
v -0.778342 0.033237 -0.610229
v -0.962988 0.033237 -0.610229
v 0.934212 0.245857 0.606783
v -1.008242 0.245857 0.606783
v -1.008242 0.246097 0.801952
v 0.934212 0.246097 0.801952
v -1.008242 0.216295 0.801988
v -1.008242 0.216055 0.606820
v 0.934212 0.216055 0.606820
v 0.934212 0.216295 0.801988
v 0.991686 0.244997 -0.093360
v -0.950767 0.244997 -0.093360
v -0.950767 0.245237 0.101818
v 0.991686 0.245237 0.101818
v -0.950767 0.215435 0.101855
v -0.950767 0.215195 -0.093324
v 0.991686 0.215195 -0.093324
v 0.991686 0.215435 0.101855
v 0.972613 0.244543 -0.463003
v -0.969860 0.244543 -0.463003
v -0.969860 0.244783 -0.267835
v 0.972613 0.244783 -0.267835
v -0.969860 0.214981 -0.267798
v -0.969860 0.214741 -0.462967
v 0.972613 0.214741 -0.462967
v 0.972613 0.214981 -0.267798
v 0.957480 0.245411 0.243250
v -0.984973 0.245411 0.243250
v -0.984973 0.245650 0.438429
v 0.957480 0.245650 0.438429
v -0.984973 0.215848 0.438465
v -0.984973 0.215609 0.243287
v 0.957480 0.215609 0.243287
v 0.957480 0.215848 0.438465
v -0.969860 0.034149 -0.610308
v 0.972613 0.034149 -0.610308
v 0.972613 0.033909 -0.805476
v -0.969860 0.033909 -0.805476
v 0.972613 0.004108 -0.805440
v 0.972613 0.004347 -0.610271
v -0.969860 0.004347 -0.610271
v -0.969860 0.004108 -0.805440
v -0.969860 0.035884 0.802210
v 0.972613 0.035884 0.802210
v 0.972613 0.035644 0.607041
v -0.969860 0.035644 0.607041
v 0.972613 0.005842 0.607078
v 0.972613 0.006082 0.802246
v -0.969860 0.006082 0.802246
v -0.969860 0.005842 0.607078
v -0.969860 0.035024 0.102076
v 0.972613 0.035024 0.102076
v 0.972613 0.034784 -0.093102
v -0.969860 0.034784 -0.093102
v 0.972613 0.004982 -0.093065
v 0.972613 0.005222 0.102113
v -0.969860 0.005222 0.102113
v -0.969860 0.004982 -0.093065
v -0.781722 0.183990 0.099014
v -0.781722 0.183758 -0.089956
v -0.966387 0.183758 -0.089956
v -0.966387 0.183990 0.099014
v -0.966387 0.033876 -0.089772
v -0.781722 0.033876 -0.089772
v -0.781722 0.034108 0.099198
v -0.966387 0.034108 0.099198
v -0.782910 0.184853 0.801412
v -0.782910 0.184621 0.612442
v -0.967556 0.184621 0.612442
v -0.967556 0.184853 0.801412
v -0.967556 0.034738 0.612626
v -0.782910 0.034738 0.612626
v -0.782910 0.034970 0.801596
v -0.967556 0.034970 0.801596
v 0.111016 0.183119 -0.610413
v 0.111016 0.182887 -0.799392
v -0.073630 0.182887 -0.799392
v -0.073630 0.183119 -0.610413
v -0.073630 0.033005 -0.799208
v 0.111016 0.033005 -0.799208
v 0.111016 0.033237 -0.610229
v -0.073630 0.033237 -0.610229
v 0.107597 0.183990 0.099014
v 0.107597 0.183758 -0.089956
v -0.077029 0.183758 -0.089956
v -0.077029 0.183990 0.099014
v -0.077029 0.033876 -0.089772
v 0.107597 0.033876 -0.089772
v 0.107597 0.034108 0.099198
v -0.077029 0.034108 0.099198
v 0.103070 0.184857 0.804575
v 0.109708 0.184625 0.615721
v -0.074823 0.184617 0.609279
v -0.081439 0.184849 0.798142
v -0.074823 0.034735 0.609463
v 0.109708 0.034742 0.615906
v 0.103070 0.034974 0.804759
v -0.081439 0.034967 0.798326
v 0.773910 0.184629 0.619392
v 0.783123 0.184861 0.808137
v 0.967576 0.184850 0.799157
v 0.958320 0.184618 0.610411
v 0.967576 0.034968 0.799341
v 0.783123 0.034979 0.808321
v 0.773910 0.034747 0.619576
v 0.958320 0.034736 0.610595
v 0.788806 0.183745 -0.100997
v 0.775258 0.183976 0.087486
v 0.959413 0.183992 0.100683
v 0.973001 0.183761 -0.087799
v 0.959413 0.034110 0.100867
v 0.775258 0.034094 0.087670
v 0.788806 0.033862 -0.100812
v 0.973001 0.033879 -0.087615
v 0.782969 0.182890 -0.797040
v 0.782969 0.183122 -0.608070
v 0.967615 0.183122 -0.608070
v 0.967615 0.182890 -0.797040
v 0.967615 0.033240 -0.607886
v 0.782969 0.033240 -0.607886
v 0.782969 0.033007 -0.796856
v 0.967615 0.033007 -0.796856
v 0.776878 0.212450 -0.804749
v 0.776878 0.214424 0.802762
v 0.972474 0.214424 0.802762
v 0.972474 0.212450 -0.804749
v 0.972474 0.184623 0.802798
v 0.776878 0.184623 0.802798
v 0.776878 0.182649 -0.804712
v 0.972474 0.182649 -0.804712
v -0.085441 0.212450 -0.804749
v -0.085441 0.214424 0.802762
v 0.110138 0.214424 0.802762
v 0.110138 0.212450 -0.804749
v 0.110138 0.184623 0.802798
v -0.085441 0.184623 0.802798
v -0.085441 0.182649 -0.804712
v 0.110138 0.182649 -0.804712
v -0.968493 0.212450 -0.804749
v -0.968493 0.214424 0.802762
v -0.772878 0.214424 0.802762
v -0.772878 0.212450 -0.804749
v -0.772878 0.184623 0.802798
v -0.968493 0.184623 0.802798
v -0.968493 0.182649 -0.804712
v -0.772878 0.182649 -0.804712
vt 0.795611 0.046130
vt 0.414582 0.046130
vt 0.414582 0.007846
vt 0.795611 0.007846
vt 0.414582 0.090259
vt 0.414582 0.051975
vt 0.795611 0.051975
vt 0.795611 0.090259
vt 0.408736 0.046130
vt 0.408736 0.007846
vt 0.414582 0.002000
vt 0.795611 0.002000
vt 0.801457 0.007846
vt 0.801457 0.046130
vt 0.380103 0.821623
vt 0.380103 0.784555
vt 0.416323 0.784555
vt 0.416323 0.821623
vt 0.416323 0.755154
vt 0.380103 0.755154
vt 0.380103 0.718086
vt 0.416323 0.718086
vt 0.343034 0.784555
vt 0.343034 0.755154
vt 0.453392 0.784555
vt 0.453392 0.755154
vt 0.416323 0.851024
vt 0.380103 0.851024
vt 0.007846 0.256525
vt 0.388875 0.256525
vt 0.388875 0.294809
vt 0.007846 0.294809
vt 0.388875 0.212396
vt 0.388875 0.250679
vt 0.007846 0.250679
vt 0.007846 0.212396
vt 0.394721 0.212396
vt 0.394721 0.250679
vt 0.007846 0.206550
vt 0.388875 0.206550
vt 0.002000 0.250679
vt 0.002000 0.212396
vt 0.388875 0.557504
vt 0.007846 0.557504
vt 0.007846 0.519220
vt 0.388875 0.519220
vt 0.007846 0.601633
vt 0.007846 0.563350
vt 0.388875 0.563350
vt 0.388875 0.601633
vt 0.002000 0.557504
vt 0.002000 0.519220
vt 0.007846 0.513374
vt 0.388875 0.513374
vt 0.394720 0.519220
vt 0.394720 0.557504
vt 0.388875 0.148405
vt 0.007846 0.148404
vt 0.007846 0.110121
vt 0.388875 0.110121
vt 0.007846 0.192534
vt 0.007846 0.154250
vt 0.388875 0.154250
vt 0.388875 0.192534
vt 0.002000 0.148404
vt 0.002000 0.110121
vt 0.007846 0.104275
vt 0.388875 0.104275
vt 0.394721 0.110121
vt 0.394721 0.148405
vt 0.388875 0.084413
vt 0.007846 0.084413
vt 0.007846 0.046130
vt 0.388875 0.046130
vt 0.007846 0.040284
vt 0.007846 0.002000
vt 0.388875 0.002000
vt 0.388875 0.040284
vt 0.388875 0.090259
vt 0.007846 0.090259
vt 0.002000 0.084413
vt 0.002000 0.046129
vt 0.394721 0.046130
vt 0.394721 0.084413
vt 0.795611 0.192534
vt 0.414582 0.192534
vt 0.414582 0.154250
vt 0.795611 0.154250
vt 0.414582 0.148404
vt 0.414582 0.110121
vt 0.795611 0.110121
vt 0.795611 0.148404
vt 0.414582 0.104275
vt 0.795611 0.104275
vt 0.408736 0.148404
vt 0.408736 0.110121
vt 0.801457 0.110121
vt 0.801457 0.148404
vt 0.388875 0.499358
vt 0.007846 0.499358
vt 0.007846 0.461075
vt 0.388875 0.461075
vt 0.007846 0.455229
vt 0.007846 0.416945
vt 0.388875 0.416945
vt 0.388875 0.455229
vt 0.007846 0.411099
vt 0.388875 0.411099
vt 0.002000 0.455229
vt 0.002000 0.416945
vt 0.394721 0.416945
vt 0.394721 0.455229
vt 0.388875 0.397084
vt 0.007846 0.397084
vt 0.007846 0.358800
vt 0.388875 0.358800
vt 0.007846 0.352954
vt 0.007846 0.314670
vt 0.388875 0.314670
vt 0.388875 0.352954
vt 0.007846 0.308825
vt 0.388875 0.308825
vt 0.002000 0.352954
vt 0.002000 0.314670
vt 0.394721 0.314670
vt 0.394721 0.352954
vt 0.199662 0.886991
vt 0.199662 0.924060
vt 0.163442 0.924060
vt 0.163442 0.886991
vt 0.163442 0.820522
vt 0.199662 0.820522
vt 0.199662 0.857591
vt 0.163442 0.857591
vt 0.236730 0.886991
vt 0.236730 0.857591
vt 0.199662 0.953461
vt 0.163442 0.953461
vt 0.126373 0.886991
vt 0.126373 0.857591
vt 0.039068 0.857591
vt 0.039068 0.820522
vt 0.075289 0.820522
vt 0.075289 0.857591
vt 0.075289 0.924060
vt 0.039069 0.924060
vt 0.039068 0.886991
vt 0.075289 0.886991
vt 0.002000 0.857591
vt 0.002000 0.886991
vt 0.075289 0.953461
vt 0.039068 0.953461
vt 0.112357 0.857591
vt 0.112357 0.886991
vt 0.847376 0.783707
vt 0.810307 0.783706
vt 0.810307 0.747486
vt 0.847376 0.747486
vt 0.780906 0.747486
vt 0.780906 0.783706
vt 0.743838 0.783706
vt 0.743838 0.747486
vt 0.780906 0.813107
vt 0.743838 0.813107
vt 0.743838 0.718086
vt 0.780906 0.718086
vt 0.714437 0.783706
vt 0.714437 0.747486
vt 0.503628 0.783707
vt 0.540696 0.783707
vt 0.540696 0.819927
vt 0.503628 0.819927
vt 0.540697 0.718086
vt 0.540697 0.754306
vt 0.503628 0.754306
vt 0.503628 0.718086
vt 0.576917 0.783707
vt 0.576917 0.754306
vt 0.540696 0.849328
vt 0.503628 0.849328
vt 0.467408 0.783707
vt 0.467408 0.754306
vt 0.664208 0.754299
vt 0.627146 0.754299
vt 0.627152 0.718086
vt 0.664213 0.718086
vt 0.627152 0.819926
vt 0.627146 0.783712
vt 0.664208 0.783712
vt 0.664213 0.819926
vt 0.590933 0.754299
vt 0.590933 0.783712
vt 0.664213 0.849339
vt 0.627152 0.849339
vt 0.700421 0.754299
vt 0.700421 0.783712
vt 0.380082 0.968575
vt 0.380089 0.931520
vt 0.416296 0.931520
vt 0.416288 0.968575
vt 0.416296 0.902095
vt 0.380089 0.902095
vt 0.380082 0.865040
vt 0.416289 0.865040
vt 0.343034 0.931520
vt 0.343034 0.902095
vt 0.453351 0.931520
vt 0.453351 0.902095
vt 0.416288 0.998000
vt 0.380082 0.998000
vt 0.656578 0.863354
vt 0.656589 0.900394
vt 0.620397 0.900394
vt 0.620386 0.863354
vt 0.620397 0.929847
vt 0.656589 0.929847
vt 0.656577 0.966886
vt 0.620386 0.966886
vt 0.686042 0.929856
vt 0.686031 0.966895
vt 0.590933 0.966878
vt 0.590944 0.929838
vt 0.656577 0.996339
vt 0.620386 0.996339
vt 0.503628 0.892744
vt 0.540696 0.892744
vt 0.540696 0.928965
vt 0.503628 0.928965
vt 0.540696 0.958365
vt 0.540696 0.994586
vt 0.503628 0.994586
vt 0.503628 0.958365
vt 0.503628 0.863344
vt 0.540696 0.863344
vt 0.576917 0.928965
vt 0.576917 0.958365
vt 0.467408 0.928965
vt 0.467408 0.958365
vt 0.323173 0.704070
vt 0.007846 0.704070
vt 0.007846 0.665705
vt 0.323173 0.665705
vt 0.007846 0.659860
vt 0.007846 0.621495
vt 0.323173 0.621495
vt 0.323173 0.659859
vt 0.007846 0.615649
vt 0.323173 0.615649
vt 0.002000 0.659860
vt 0.002000 0.621495
vt 0.329019 0.621495
vt 0.329019 0.659859
vt 0.323173 0.762296
vt 0.007846 0.762296
vt 0.007846 0.723931
vt 0.323173 0.723932
vt 0.007846 0.806506
vt 0.007846 0.768142
vt 0.323173 0.768142
vt 0.323173 0.806506
vt 0.002000 0.762296
vt 0.002000 0.723931
vt 0.007846 0.718086
vt 0.323173 0.718086
vt 0.329019 0.723932
vt 0.329019 0.762296
vt 0.664207 0.704070
vt 0.348880 0.704070
vt 0.348880 0.665705
vt 0.664207 0.665705
vt 0.348880 0.659859
vt 0.348880 0.621495
vt 0.664207 0.621495
vt 0.664207 0.659859
vt 0.348880 0.615649
vt 0.664207 0.615649
vt 0.343034 0.659859
vt 0.343034 0.621495
vt 0.670053 0.621495
vt 0.670053 0.659859
vn 0.0000 1.0000 -0.0012
vn 0.0000 -1.0000 0.0012
vn 0.0000 -0.0012 -1.0000
vn -1.0000 0.0000 0.0000
vn 0.0000 0.0012 1.0000
vn 1.0000 0.0000 0.0000
vn 0.9994 0.0000 0.0351
vn 0.0349 -0.0012 -0.9994
vn -0.9994 -0.0000 -0.0350
vn -0.0348 0.0012 0.9994
vn -0.9988 0.0001 0.0487
vn 0.0486 0.0012 0.9988
vn 0.9988 -0.0001 -0.0490
vn -0.0486 -0.0012 -0.9988
vn -0.9974 -0.0001 -0.0717
vn -0.0715 0.0012 0.9974
vn 0.9974 0.0001 0.0719
vn 0.0715 -0.0012 -0.9974
usemtl Mat.001
s 1
f 1/1/1 2/2/1 3/3/1 4/4/1
f 5/5/2 6/6/2 7/7/2 8/8/2
f 2/2/3 1/1/3 7/7/3 6/6/3
f 3/3/4 2/2/4 6/9/4 5/10/4
f 4/4/5 3/3/5 5/11/5 8/12/5
f 1/1/6 4/4/6 8/13/6 7/14/6
f 9/15/1 10/16/1 11/17/1 12/18/1
f 13/19/2 14/20/2 15/21/2 16/22/2
f 10/16/6 9/23/6 15/24/6 14/20/6
f 11/17/3 10/16/3 14/20/3 13/19/3
f 12/25/4 11/17/4 13/19/4 16/26/4
f 9/15/5 12/18/5 16/27/5 15/28/5
f 17/29/1 18/30/1 19/31/1 20/32/1
f 21/33/2 22/34/2 23/35/2 24/36/2
f 18/30/3 17/29/3 23/35/3 22/34/3
f 19/37/4 18/38/4 22/34/4 21/33/4
f 20/39/5 19/40/5 21/33/5 24/36/5
f 17/41/6 20/42/6 24/36/6 23/35/6
f 25/43/1 26/44/1 27/45/1 28/46/1
f 29/47/2 30/48/2 31/49/2 32/50/2
f 26/44/3 25/43/3 31/49/3 30/48/3
f 27/45/4 26/44/4 30/51/4 29/52/4
f 28/46/5 27/45/5 29/53/5 32/54/5
f 25/43/6 28/46/6 32/55/6 31/56/6
f 33/57/1 34/58/1 35/59/1 36/60/1
f 37/61/2 38/62/2 39/63/2 40/64/2
f 34/58/3 33/57/3 39/63/3 38/62/3
f 35/59/4 34/58/4 38/65/4 37/66/4
f 36/60/5 35/59/5 37/67/5 40/68/5
f 33/57/6 36/60/6 40/69/6 39/70/6
f 41/71/1 42/72/1 43/73/1 44/74/1
f 45/75/2 46/76/2 47/77/2 48/78/2
f 42/72/3 41/71/3 47/79/3 46/80/3
f 43/73/4 42/72/4 46/81/4 45/82/4
f 44/74/5 43/73/5 45/75/5 48/78/5
f 41/71/6 44/74/6 48/83/6 47/84/6
f 49/85/1 50/86/1 51/87/1 52/88/1
f 53/89/2 54/90/2 55/91/2 56/92/2
f 50/93/5 49/94/5 55/91/5 54/90/5
f 51/95/6 50/96/6 54/90/6 53/89/6
f 52/88/3 51/87/3 53/89/3 56/92/3
f 49/97/4 52/98/4 56/92/4 55/91/4
f 57/99/1 58/100/1 59/101/1 60/102/1
f 61/103/2 62/104/2 63/105/2 64/106/2
f 58/107/5 57/108/5 63/105/5 62/104/5
f 59/109/6 58/110/6 62/104/6 61/103/6
f 60/102/3 59/101/3 61/103/3 64/106/3
f 57/111/4 60/112/4 64/106/4 63/105/4
f 65/113/1 66/114/1 67/115/1 68/116/1
f 69/117/2 70/118/2 71/119/2 72/120/2
f 66/121/5 65/122/5 71/119/5 70/118/5
f 67/123/6 66/124/6 70/118/6 69/117/6
f 68/116/3 67/115/3 69/117/3 72/120/3
f 65/125/4 68/126/4 72/120/4 71/119/4
f 73/127/1 74/128/1 75/129/1 76/130/1
f 77/131/2 78/132/2 79/133/2 80/134/2
f 74/135/6 73/127/6 79/133/6 78/136/6
f 75/129/3 74/128/3 78/137/3 77/138/3
f 76/130/4 75/139/4 77/140/4 80/134/4
f 73/127/5 76/130/5 80/134/5 79/133/5
f 81/141/1 82/142/1 83/143/1 84/144/1
f 85/145/2 86/146/2 87/147/2 88/148/2
f 82/149/6 81/141/6 87/147/6 86/150/6
f 83/151/3 82/152/3 86/146/3 85/145/3
f 84/144/4 83/153/4 85/154/4 88/148/4
f 81/141/5 84/144/5 88/148/5 87/147/5
f 89/155/1 90/156/1 91/157/1 92/158/1
f 93/159/2 94/160/2 95/161/2 96/162/2
f 90/163/6 89/164/6 95/161/6 94/160/6
f 91/157/3 90/156/3 94/160/3 93/159/3
f 92/165/4 91/166/4 93/159/4 96/162/4
f 89/167/5 92/168/5 96/162/5 95/161/5
f 97/169/1 98/170/1 99/171/1 100/172/1
f 101/173/2 102/174/2 103/175/2 104/176/2
f 98/170/6 97/169/6 103/175/6 102/174/6
f 99/177/3 98/170/3 102/174/3 101/178/3
f 100/172/4 99/171/4 101/179/4 104/180/4
f 97/169/5 100/181/5 104/182/5 103/175/5
f 105/183/1 106/184/1 107/185/1 108/186/1
f 109/187/2 110/188/2 111/189/2 112/190/2
f 106/184/7 105/183/7 111/189/7 110/188/7
f 107/191/8 106/184/8 110/188/8 109/192/8
f 108/193/9 107/194/9 109/187/9 112/190/9
f 105/183/10 108/195/10 112/196/10 111/189/10
f 113/197/1 114/198/1 115/199/1 116/200/1
f 117/201/2 118/202/2 119/203/2 120/204/2
f 114/198/11 113/205/11 119/206/11 118/202/11
f 115/199/12 114/198/12 118/202/12 117/201/12
f 116/207/13 115/199/13 117/201/13 120/208/13
f 113/197/14 116/200/14 120/209/14 119/210/14
f 121/211/1 122/212/1 123/213/1 124/214/1
f 125/215/2 126/216/2 127/217/2 128/218/2
f 122/219/15 121/220/15 127/217/15 126/216/15
f 123/213/16 122/212/16 126/216/16 125/215/16
f 124/221/17 123/222/17 125/215/17 128/218/17
f 121/223/18 124/224/18 128/218/18 127/217/18
f 129/225/1 130/226/1 131/227/1 132/228/1
f 133/229/2 134/230/2 135/231/2 136/232/2
f 130/226/4 129/225/4 135/233/4 134/234/4
f 131/227/5 130/235/5 134/236/5 133/229/5
f 132/228/6 131/227/6 133/229/6 136/232/6
f 129/237/3 132/228/3 136/232/3 135/238/3
f 137/239/1 138/240/1 139/241/1 140/242/1
f 141/243/2 142/244/2 143/245/2 144/246/2
f 138/247/4 137/248/4 143/245/4 142/244/4
f 139/249/5 138/250/5 142/244/5 141/243/5
f 140/242/6 139/241/6 141/243/6 144/246/6
f 137/251/3 140/252/3 144/246/3 143/245/3
f 145/253/1 146/254/1 147/255/1 148/256/1
f 149/257/2 150/258/2 151/259/2 152/260/2
f 146/254/4 145/253/4 151/259/4 150/258/4
f 147/255/5 146/254/5 150/261/5 149/262/5
f 148/256/6 147/255/6 149/263/6 152/264/6
f 145/253/3 148/256/3 152/265/3 151/266/3
f 153/267/1 154/268/1 155/269/1 156/270/1
f 157/271/2 158/272/2 159/273/2 160/274/2
f 154/275/4 153/276/4 159/273/4 158/272/4
f 155/277/5 154/278/5 158/272/5 157/271/5
f 156/270/6 155/269/6 157/271/6 160/274/6
f 153/279/3 156/280/3 160/274/3 159/273/3
